<svg width="3302" height="1010" xmlns="http://www.w3.org/2000/svg" xmlns:xlink="http://www.w3.org/1999/xlink" xml:space="preserve" overflow="hidden"><defs><clipPath id="clip0"><rect x="922" y="2555" width="3302" height="1010"/></clipPath><linearGradient x1="4224" y1="3060" x2="922" y2="3060" gradientUnits="userSpaceOnUse" spreadMethod="reflect" id="fill1"><stop offset="0" stop-color="#003399"/><stop offset="0.02" stop-color="#003399"/><stop offset="0.21" stop-color="#2653A9"/><stop offset="0.34" stop-color="#3E67B3"/><stop offset="0.46" stop-color="#5A7EBF"/><stop offset="0.58" stop-color="#84A1D1"/><stop offset="0.76" stop-color="#DCEAF7"/><stop offset="0.81" stop-color="#FFFFFF"/><stop offset="1" stop-color="#FFFFFF"/></linearGradient></defs><g clip-path="url(#clip0)" transform="translate(-922 -2555)"><rect x="922" y="2555" width="3302" height="1010" fill="url(#fill1)"/><path d="M680.526 457.073C740.404 346.901 703.89 211.361 598.969 154.337 546.509 125.825 486.879 122.341 432.881 139.755L409.537 149.817 406.884 148.965C386.657 141.446 369.344 130.278 363.691 104.509 354.268 61.5613 312.46 59.1701 278.748 46.6392L268.531 41.7073 268.571 30.0263C266.568 18.8069 260.557 9.27405 251.014 4.0872 231.928-6.28552 205.939 4.65416 192.967 28.5226 183.238 46.4244 183.594 66.5138 192.431 79.816L193.675 80.9633 197.582 87.8275C226.643 128.081 303.311 108.719 316.502 168.845 318.387 177.435 321.567 184.402 325.719 190.153L337.564 201.181 326.284 212.465C316.694 224.075 308.058 236.799 300.574 250.571 285.604 278.113 276.659 307.242 273.301 336.333L273.007 350.501 272.026 350.128C244.696 339.056 217.366 327.984 190.036 350.129 138.791 391.649 87.5475 316.393 36.3037 343.316L33.9895 344.854 33.9412 344.864C23.437 349.286 13.6965 357.988 7.21022 369.923-5.7623 393.792-0.806539 421.55 18.2795 431.923 32.5945 439.704 50.7917 435.494 64.4683 422.834L67.9409 418.34 84.275 422.062C118.438 433.308 152.6 457.527 186.763 429.848 214.093 407.703 241.422 418.776 268.752 429.848L284.84 435.957 294.429 461.509C313.059 499.497 342.785 531.923 382.13 553.307 487.051 610.33 620.647 567.246 680.526 457.073Z" stroke="#000000" stroke-width="21.027" stroke-miterlimit="8" fill="#FFBF00" fill-rule="evenodd" transform="matrix(0.477526 -0.878618 -0.878618 -0.477526 1528.52 3692.84)"/><path d="M1334.04 3097.92C1334.04 3069.75 1352.4 3046.92 1375.04 3046.92 1397.68 3046.92 1416.04 3069.75 1416.04 3097.92 1416.04 3126.09 1397.68 3148.92 1375.04 3148.92 1352.4 3148.92 1334.04 3126.09 1334.04 3097.92Z" fill-rule="evenodd"/><path d="M1474.05 3096.42C1474.05 3068.53 1492.18 3045.92 1514.55 3045.92 1536.92 3045.92 1555.05 3068.53 1555.05 3096.42 1555.05 3124.31 1536.92 3146.92 1514.55 3146.92 1492.18 3146.92 1474.05 3124.31 1474.05 3096.42Z" fill-rule="evenodd"/><path d="M1370.05 2849.92 1628.4 2849.92 1638.45 2917.53 1651.05 2922.93 1651.05 2990.92 1370.05 2990.92Z" fill="#FFFFFF" fill-rule="evenodd"/><path d="M1492.99 2893.92 1537.04 2905.86 1525.1 2949.92 1481.04 2937.98Z" fill-rule="evenodd"/><path d="M1638.99 2917.48 1619.49 2787.46C1612.18 2738.41 1627.92 2689.13 1662.43 2653.17L1695.95 2618.7C1699.18 2615.46 1699.03 2609.53 1695.77 2606.3 1693.88 2604.61 1691.29 2603.31 1688.09 2604.22L1666.36 2608.33C1580.08 2624.4 1504.7 2676.36 1459.07 2751.09L1399.22 2847.86 1399.22 2847.86C1328.78 2844.68 1267.51 2859.86 1259.92 2887.82 1254.57 2907.55 1274.2 2932.87 1307.81 2956.68 1312.7 2960.36 1318.89 2961.44 1324.42 2960.59L1351.55 2956.16 1342.69 2971.42C1341.4 2974.01 1342.16 2977.74 1344.75 2979.03 1344.75 2979.03 1344.75 2979.03 1344.75 2979.03 1387.08 3001.08 1432.3 3016.85 1479.29 3026.05 1618.94 3052.09 1731.32 3048.38 1741.14 3012.2 1753.25 2971.94 1706.47 2944.57 1638.99 2917.48ZM1547.22 2953.82 1545.13 2961.5C1542.6 2970.82 1533.53 2976.01 1524.2 2973.48L1469.32 2958.62C1459.98 2956.1 1454.78 2947.04 1457.31 2937.72L1459.4 2930.05C1430.2 2920.38 1404.79 2907.62 1376.84 2891.23L1398.33 2851.15C1423.69 2866.25 1445.4 2877.43 1471.3 2886.2L1472.19 2882.91C1474.72 2873.6 1483.79 2868.4 1493.12 2870.93L1548.02 2885.79C1557.34 2888.31 1562.54 2897.37 1560.01 2906.69L1559.13 2909.98C1585.37 2915.32 1611.51 2918.86 1638.1 2920.76L1636.92 2966.34C1606.89 2964.09 1576.76 2960.06 1547.22 2953.82Z" fill-rule="evenodd"/></g></svg>