<svg width="4822" height="1011" xmlns="http://www.w3.org/2000/svg" xmlns:xlink="http://www.w3.org/1999/xlink" xml:space="preserve" overflow="hidden"><defs><clipPath id="clip0"><rect x="499" y="419" width="4822" height="1011"/></clipPath><linearGradient x1="5321" y1="924.5" x2="499" y2="924.5" gradientUnits="userSpaceOnUse" spreadMethod="reflect" id="fill1"><stop offset="0" stop-color="#003399"/><stop offset="0.56" stop-color="#6788C5"/><stop offset="0.62" stop-color="#7D9ACE"/><stop offset="0.71" stop-color="#AAC0E1"/><stop offset="0.82" stop-color="#DCEAF7"/><stop offset="0.87" stop-color="#FFFFFF"/><stop offset="1" stop-color="#FFFFFF"/></linearGradient></defs><g clip-path="url(#clip0)" transform="translate(-499 -419)"><rect x="499" y="419" width="4822" height="1011" fill="url(#fill1)"/><path d="M680.526 457.073C740.404 346.901 703.89 211.361 598.969 154.337 546.509 125.825 486.879 122.341 432.881 139.755L409.537 149.817 406.884 148.965C386.657 141.446 369.344 130.278 363.691 104.509 354.268 61.5613 312.46 59.1701 278.748 46.6392L268.531 41.7073 268.571 30.0263C266.568 18.8069 260.557 9.27405 251.014 4.0872 231.928-6.28552 205.939 4.65416 192.967 28.5226 183.238 46.4244 183.594 66.5138 192.431 79.816L193.675 80.9633 197.582 87.8275C226.643 128.081 303.311 108.719 316.502 168.845 318.387 177.435 321.567 184.402 325.719 190.153L337.564 201.181 326.284 212.465C316.694 224.075 308.058 236.799 300.574 250.571 285.604 278.113 276.659 307.242 273.301 336.333L273.007 350.501 272.026 350.128C244.696 339.056 217.366 327.984 190.036 350.129 138.791 391.649 87.5475 316.393 36.3037 343.316L33.9895 344.854 33.9412 344.864C23.437 349.286 13.6965 357.988 7.21022 369.923-5.7623 393.792-0.806539 421.55 18.2795 431.923 32.5945 439.704 50.7917 435.494 64.4683 422.834L67.9409 418.34 84.275 422.062C118.438 433.308 152.6 457.527 186.763 429.848 214.093 407.703 241.422 418.776 268.752 429.848L284.84 435.957 294.429 461.509C313.059 499.497 342.785 531.923 382.13 553.307 487.051 610.33 620.647 567.246 680.526 457.073Z" stroke="#000000" stroke-width="21.027" stroke-miterlimit="8" fill="#FFBF00" fill-rule="evenodd" transform="matrix(0.477526 -0.878618 -0.878618 -0.477526 1105.22 1557.14)"/><path d="M911.051 961.92C911.051 933.753 929.184 910.92 951.551 910.92 973.918 910.92 992.051 933.753 992.051 961.92 992.051 990.087 973.918 1012.92 951.551 1012.92 929.184 1012.92 911.051 990.087 911.051 961.92Z" fill-rule="evenodd"/><path d="M1050.04 960.42C1050.04 932.529 1068.4 909.92 1091.04 909.92 1113.68 909.92 1132.04 932.529 1132.04 960.42 1132.04 988.31 1113.68 1010.92 1091.04 1010.92 1068.4 1010.92 1050.04 988.31 1050.04 960.42Z" fill-rule="evenodd"/><path d="M947.047 714.92 1205.4 714.92 1215.45 782.054 1228.05 787.408 1228.05 854.92 947.047 854.92Z" fill="#FFFFFF" fill-rule="evenodd"/><path d="M1068.99 758.921 1113.04 770.651 1101.1 813.922 1057.04 802.19Z" fill-rule="evenodd"/><path d="M1215.99 781.476 1196.49 651.46C1189.18 602.411 1204.92 553.128 1239.43 517.165L1272.95 482.698C1276.18 479.456 1276.03 473.529 1272.77 470.296 1270.88 468.605 1268.29 467.314 1265.09 468.216L1243.36 472.332C1157.09 488.402 1081.7 540.365 1036.07 615.094L976.222 711.859 976.222 711.859C905.782 708.679 844.506 723.863 836.923 751.817 831.566 771.548 851.203 796.87 884.806 820.677 889.701 824.355 895.89 825.442 901.423 824.587L928.551 820.162 919.693 835.417C918.4 838.009 919.157 841.743 921.752 843.035 921.752 843.035 921.752 843.035 921.752 843.035 964.084 865.084 1009.3 880.854 1056.29 890.047 1195.94 916.085 1308.32 912.378 1318.14 876.204 1330.25 835.942 1283.47 808.569 1215.99 781.476ZM1124.22 817.825 1122.13 825.498C1119.6 834.815 1110.53 840.009 1101.2 837.483L1046.32 822.624C1036.98 820.099 1031.78 811.041 1034.31 801.724L1036.4 794.05C1007.2 784.382 981.791 771.62 953.841 755.225L975.325 715.148C1000.69 730.251 1022.41 741.425 1048.3 750.202L1049.19 746.913C1051.72 737.596 1060.79 732.402 1070.12 734.928L1125.02 749.787C1134.34 752.313 1139.54 761.37 1137.01 770.688L1136.13 773.977C1162.37 779.316 1188.51 782.863 1215.1 784.764L1213.92 830.34C1183.89 828.094 1153.76 824.055 1124.22 817.825Z" fill-rule="evenodd"/></g></svg>