<svg width="4211" height="1089" xmlns="http://www.w3.org/2000/svg" xmlns:xlink="http://www.w3.org/1999/xlink" xml:space="preserve" overflow="hidden"><defs><clipPath id="clip0"><rect x="462" y="419" width="4211" height="1089"/></clipPath><linearGradient x1="4673" y1="963.5" x2="462" y2="963.5" gradientUnits="userSpaceOnUse" spreadMethod="reflect" id="fill1"><stop offset="0" stop-color="#6E6E6E"/><stop offset="0.5" stop-color="#A0A0A0"/><stop offset="0.76" stop-color="#D7D7D7"/><stop offset="0.84" stop-color="#FFFFFF"/><stop offset="1" stop-color="#FFFFFF"/></linearGradient></defs><g clip-path="url(#clip0)" transform="translate(-462 -419)"><rect x="462" y="419" width="4211" height="1089" fill="url(#fill1)"/><path d="M752.436 505.372C818.642 383.558 778.269 233.696 662.261 170.646 604.258 139.121 538.327 135.268 478.623 154.523L452.812 165.648 449.879 164.706C427.515 156.393 408.372 144.045 402.122 115.553 391.703 68.0665 345.477 65.4226 308.202 51.5676L296.907 46.1145 296.951 33.1992C294.736 20.7943 288.09 10.254 277.539 4.51909 256.436-6.9497 227.701 5.14596 213.357 31.5366 202.601 51.3301 202.994 73.5423 212.765 88.2501L214.14 89.5186 218.46 97.1082C250.592 141.615 335.361 120.207 349.947 186.687 352.03 196.184 355.546 203.888 360.137 210.246L373.234 222.44 360.762 234.916C350.159 247.753 340.61 261.821 332.335 277.048 315.784 307.501 305.893 339.708 302.18 371.873L301.855 387.539 300.771 387.125C270.552 374.883 240.334 362.642 210.117 387.126 153.457 433.034 96.7986 349.826 40.1399 379.594L37.5812 381.295 37.5278 381.306C25.9135 386.195 15.1438 395.817 7.97211 409.013-6.37119 435.403-0.891765 466.095 20.2111 477.564 36.0387 486.167 56.1588 481.512 71.2806 467.515L75.1201 462.546 93.1803 466.661C130.953 479.095 168.725 505.874 206.498 475.269 236.716 450.785 266.933 463.027 297.151 475.269L314.939 482.024 325.541 510.277C346.139 552.279 379.006 588.131 422.509 611.774 538.517 674.823 686.23 627.186 752.436 505.372Z" stroke="#000000" stroke-width="21.027" stroke-miterlimit="8" fill="#FFBF00" fill-rule="evenodd" transform="matrix(0.477526 -0.878618 -0.878618 -0.477526 1135.89 1653.89)"/><path d="M920.945 995.912C920.945 964.984 941.093 939.912 965.945 939.912 990.798 939.912 1010.95 964.984 1010.95 995.912 1010.95 1026.84 990.798 1051.91 965.945 1051.91 941.093 1051.91 920.945 1026.84 920.945 995.912Z" fill-rule="evenodd"/><path d="M1074.95 994.412C1074.95 963.76 1095.09 938.912 1119.95 938.912 1144.8 938.912 1164.95 963.76 1164.95 994.412 1164.95 1025.06 1144.8 1049.91 1119.95 1049.91 1095.09 1049.91 1074.95 1025.06 1074.95 994.412Z" fill-rule="evenodd"/><path d="M960.948 721.911 1245.97 721.911 1257.05 796.717 1270.95 802.683 1270.95 877.911 960.948 877.911Z" fill="#FFFFFF" fill-rule="evenodd"/><path d="M1096.17 770.911 1144.94 784.134 1131.72 832.911 1082.94 819.687Z" fill-rule="evenodd"/><path d="M1257.92 797.037 1236.37 653.101C1228.29 598.801 1245.69 544.242 1283.84 504.429L1320.89 466.272C1324.46 462.682 1324.29 456.121 1320.69 452.542 1318.6 450.67 1315.73 449.241 1312.2 450.239L1288.17 454.796C1192.81 472.586 1109.49 530.112 1059.05 612.842L992.892 719.967 992.892 719.967C915.03 716.447 847.297 733.256 838.915 764.202 832.993 786.046 854.699 814.08 891.843 840.435 897.255 844.507 904.095 845.71 910.211 844.764L940.198 839.865 930.406 856.753C928.977 859.622 929.814 863.757 932.683 865.186 932.683 865.186 932.683 865.186 932.683 865.186 979.475 889.596 1029.45 907.055 1081.4 917.232 1235.77 946.058 1359.98 941.954 1370.83 901.907 1384.22 857.334 1332.52 827.031 1257.92 797.037ZM1156.49 837.278 1154.18 845.772C1151.38 856.087 1141.35 861.837 1131.04 859.04L1070.37 842.591C1060.05 839.795 1054.3 829.768 1057.1 819.453L1059.41 810.957C1027.14 800.254 999.048 786.126 968.152 767.976L991.901 723.608C1019.94 740.328 1043.94 752.698 1072.57 762.415L1073.55 758.774C1076.35 748.459 1086.37 742.709 1096.69 745.506L1157.36 761.956C1167.68 764.752 1173.42 774.779 1170.63 785.094L1169.65 788.735C1198.65 794.646 1227.55 798.572 1256.94 800.678L1255.64 851.133C1222.44 848.647 1189.14 844.175 1156.49 837.278Z" fill-rule="evenodd"/></g></svg>